<svg xmlns="http://www.w3.org/2000/svg" viewBox="0 0 1920 960" width="1920" height="960">
  <defs>
    <linearGradient id="bgGrad" x1="0" y1="0" x2="1" y2="1">
      <stop offset="0%" stop-color="#0d1117"/>
      <stop offset="50%" stop-color="#161b22"/>
      <stop offset="100%" stop-color="#0d1117"/>
    </linearGradient>
    <linearGradient id="cfOrange" x1="0" y1="0" x2="1" y2="1">
      <stop offset="0%" stop-color="#f6821f"/>
      <stop offset="100%" stop-color="#fbad41"/>
    </linearGradient>
    <linearGradient id="accentLine" x1="0" y1="0" x2="1" y2="0">
      <stop offset="0%" stop-color="#f6821f" stop-opacity="0"/>
      <stop offset="20%" stop-color="#f6821f"/>
      <stop offset="80%" stop-color="#fbad41"/>
      <stop offset="100%" stop-color="#fbad41" stop-opacity="0"/>
    </linearGradient>
    <filter id="glow">
      <feGaussianBlur stdDeviation="4" result="blur"/>
      <feMerge>
        <feMergeNode in="blur"/>
        <feMergeNode in="SourceGraphic"/>
      </feMerge>
    </filter>
    <filter id="softGlow">
      <feGaussianBlur stdDeviation="2"/>
    </filter>
  </defs>

  <!-- Background -->
  <rect width="1920" height="960" fill="url(#bgGrad)"/>

  <!-- Subtle grid pattern -->
  <g opacity="0.03">
    <line x1="0" y1="240" x2="1920" y2="240" stroke="#ffffff" stroke-width="1"/>
    <line x1="0" y1="480" x2="1920" y2="480" stroke="#ffffff" stroke-width="1"/>
    <line x1="0" y1="720" x2="1920" y2="720" stroke="#ffffff" stroke-width="1"/>
    <line x1="480" y1="0" x2="480" y2="960" stroke="#ffffff" stroke-width="1"/>
    <line x1="960" y1="0" x2="960" y2="960" stroke="#ffffff" stroke-width="1"/>
    <line x1="1440" y1="0" x2="1440" y2="960" stroke="#ffffff" stroke-width="1"/>
  </g>

  <!-- Left side: Title area -->
  <g transform="translate(120, 200)">
    <!-- 2x2 mini key grid icon -->
    <g filter="url(#glow)" transform="translate(0, -20)">
      <g transform="translate(0, 0)">
        <rect width="48" height="48" rx="8" fill="#161b22" stroke="#2d2d44" stroke-width="1"/>
        <rect x="6" y="5" width="36" height="4" rx="2" fill="#4ade80"/>
        <rect x="10" y="18" width="28" height="3" rx="1.5" fill="#ffffff" opacity="0.6"/>
        <rect x="14" y="26" width="20" height="3" rx="1.5" fill="#9ca3af" opacity="0.4"/>
      </g>
      <g transform="translate(56, 0)">
        <rect width="48" height="48" rx="8" fill="#161b22" stroke="#2d2d44" stroke-width="1"/>
        <rect x="6" y="5" width="36" height="4" rx="2" fill="#60a5fa"/>
        <rect x="10" y="18" width="28" height="3" rx="1.5" fill="#ffffff" opacity="0.6"/>
        <rect x="14" y="26" width="20" height="3" rx="1.5" fill="#9ca3af" opacity="0.4"/>
      </g>
      <g transform="translate(0, 56)">
        <rect width="48" height="48" rx="8" fill="#161b22" stroke="#2d2d44" stroke-width="1"/>
        <rect x="6" y="5" width="36" height="4" rx="2" fill="#fb923c"/>
        <rect x="10" y="18" width="28" height="3" rx="1.5" fill="#ffffff" opacity="0.6"/>
        <rect x="14" y="26" width="20" height="3" rx="1.5" fill="#9ca3af" opacity="0.4"/>
      </g>
      <g transform="translate(56, 56)">
        <rect width="48" height="48" rx="8" fill="#161b22" stroke="#2d2d44" stroke-width="1"/>
        <rect x="6" y="5" width="36" height="4" rx="2" fill="#fbbf24"/>
        <rect x="10" y="18" width="28" height="3" rx="1.5" fill="#ffffff" opacity="0.6"/>
        <rect x="14" y="26" width="20" height="3" rx="1.5" fill="#9ca3af" opacity="0.4"/>
      </g>
    </g>

    <!-- Plugin name -->
    <text x="140" y="30" font-family="'Segoe UI', Arial, Helvetica, sans-serif" font-size="62" font-weight="700" fill="#ffffff" letter-spacing="-1">Cloudflare</text>
    <text x="140" y="95" font-family="'Segoe UI', Arial, Helvetica, sans-serif" font-size="62" font-weight="700" fill="#ffffff" letter-spacing="-1">Utilities</text>

    <!-- Tagline -->
    <text x="140" y="145" font-family="'Segoe UI', Arial, Helvetica, sans-serif" font-size="24" fill="#9ca3af" letter-spacing="0.5">Your Cloudflare infrastructure, at your fingertips.</text>

    <!-- Accent line -->
    <rect x="140" y="165" width="300" height="3" rx="1.5" fill="url(#accentLine)"/>
  </g>

  <!-- Right side: 4 Stream Deck key mockups showing the actions -->
  <g transform="translate(960, 180)">
    <!-- Key 1: Cloudflare Status (Operational) -->
    <g transform="translate(0, 0)">
      <rect width="180" height="180" rx="20" fill="#0d1117" stroke="#2d2d44" stroke-width="2"/>
      <rect x="12" y="10" width="156" height="8" rx="4" fill="#4ade80"/>
      <text x="90" y="68" text-anchor="middle" font-family="Arial, sans-serif" font-size="16" fill="#9ca3af">Cloudflare</text>
      <text x="90" y="108" text-anchor="middle" font-family="Arial, sans-serif" font-size="26" font-weight="700" fill="#ffffff">Operational</text>
      <text x="90" y="140" text-anchor="middle" font-family="Arial, sans-serif" font-size="14" fill="#9ca3af">All Systems</text>
    </g>

    <!-- Key 2: Worker Deployment (Live) -->
    <g transform="translate(210, 0)">
      <rect width="180" height="180" rx="20" fill="#0d1117" stroke="#2d2d44" stroke-width="2"/>
      <rect x="12" y="10" width="156" height="8" rx="4" fill="#4ade80"/>
      <text x="90" y="68" text-anchor="middle" font-family="Arial, sans-serif" font-size="16" fill="#9ca3af">my-worker</text>
      <text x="90" y="108" text-anchor="middle" font-family="Arial, sans-serif" font-size="26" font-weight="700" fill="#ffffff">Live</text>
      <text x="90" y="140" text-anchor="middle" font-family="Arial, sans-serif" font-size="14" fill="#9ca3af">3m ago</text>
    </g>

    <!-- Key 3: AI Gateway Metric (Requests) -->
    <g transform="translate(420, 0)">
      <rect width="180" height="180" rx="20" fill="#0d1117" stroke="#2d2d44" stroke-width="2"/>
      <rect x="12" y="10" width="156" height="8" rx="4" fill="#60a5fa"/>
      <text x="90" y="68" text-anchor="middle" font-family="Arial, sans-serif" font-size="16" fill="#9ca3af">my-gateway</text>
      <text x="90" y="108" text-anchor="middle" font-family="Arial, sans-serif" font-size="26" font-weight="700" fill="#ffffff">12.4K</text>
      <text x="90" y="140" text-anchor="middle" font-family="Arial, sans-serif" font-size="14" fill="#9ca3af">Requests · 24h</text>
    </g>

    <!-- Key 4: Worker Analytics (Success Rate) -->
    <g transform="translate(630, 0)">
      <rect width="180" height="180" rx="20" fill="#0d1117" stroke="#2d2d44" stroke-width="2"/>
      <rect x="12" y="10" width="156" height="8" rx="4" fill="#4ade80"/>
      <text x="90" y="68" text-anchor="middle" font-family="Arial, sans-serif" font-size="16" fill="#9ca3af">api-worker</text>
      <text x="90" y="108" text-anchor="middle" font-family="Arial, sans-serif" font-size="26" font-weight="700" fill="#ffffff">99.8%</text>
      <text x="90" y="140" text-anchor="middle" font-family="Arial, sans-serif" font-size="14" fill="#9ca3af">Success · 24h</text>
    </g>
  </g>

  <!-- Bottom: Action labels -->
  <g transform="translate(960, 400)">
    <text x="90" y="0" text-anchor="middle" font-family="'Segoe UI', Arial, sans-serif" font-size="16" fill="#60a5fa">Status</text>
    <text x="300" y="0" text-anchor="middle" font-family="'Segoe UI', Arial, sans-serif" font-size="16" fill="#60a5fa">Deployment</text>
    <text x="510" y="0" text-anchor="middle" font-family="'Segoe UI', Arial, sans-serif" font-size="16" fill="#60a5fa">AI Gateway</text>
    <text x="720" y="0" text-anchor="middle" font-family="'Segoe UI', Arial, sans-serif" font-size="16" fill="#60a5fa">Analytics</text>
  </g>

  <!-- Bottom features strip -->
  <g transform="translate(0, 520)">
    <rect x="0" y="0" width="1920" height="1" fill="#2d2d44" opacity="0.5"/>

    <!-- Feature highlights -->
    <g transform="translate(120, 80)">
      <!-- Feature 1 -->
      <circle cx="0" cy="0" r="24" fill="#f6821f" opacity="0.15"/>
      <text x="0" y="5" text-anchor="middle" font-family="Arial, sans-serif" font-size="20" fill="#f6821f">⚡</text>
      <text x="40" y="6" font-family="'Segoe UI', Arial, sans-serif" font-size="18" font-weight="600" fill="#ffffff">Real-Time Updates</text>
      <text x="40" y="30" font-family="'Segoe UI', Arial, sans-serif" font-size="14" fill="#9ca3af">Adaptive polling with smart backoff</text>
    </g>

    <g transform="translate(520, 80)">
      <circle cx="0" cy="0" r="24" fill="#4ade80" opacity="0.15"/>
      <text x="0" y="5" text-anchor="middle" font-family="Arial, sans-serif" font-size="20" fill="#4ade80">🔒</text>
      <text x="40" y="6" font-family="'Segoe UI', Arial, sans-serif" font-size="18" font-weight="600" fill="#ffffff">Privacy First</text>
      <text x="40" y="30" font-family="'Segoe UI', Arial, sans-serif" font-size="14" fill="#9ca3af">Credentials stored locally, never leave your machine</text>
    </g>

    <g transform="translate(1020, 80)">
      <circle cx="0" cy="0" r="24" fill="#60a5fa" opacity="0.15"/>
      <text x="0" y="5" text-anchor="middle" font-family="Arial, sans-serif" font-size="20" fill="#60a5fa">🎯</text>
      <text x="40" y="6" font-family="'Segoe UI', Arial, sans-serif" font-size="18" font-weight="600" fill="#ffffff">One-Click Cycling</text>
      <text x="40" y="30" font-family="'Segoe UI', Arial, sans-serif" font-size="14" fill="#9ca3af">Press any key to cycle metrics or refresh</text>
    </g>

    <g transform="translate(1520, 80)">
      <circle cx="0" cy="0" r="24" fill="#fbbf24" opacity="0.15"/>
      <text x="0" y="5" text-anchor="middle" font-family="Arial, sans-serif" font-size="20" fill="#fbbf24">🖥</text>
      <text x="40" y="6" font-family="'Segoe UI', Arial, sans-serif" font-size="18" font-weight="600" fill="#ffffff">OLED Optimized</text>
      <text x="40" y="30" font-family="'Segoe UI', Arial, sans-serif" font-size="14" fill="#9ca3af">High contrast design for Stream Deck displays</text>
    </g>
  </g>

  <!-- Bottom bar accent -->
  <rect x="0" y="950" width="1920" height="10" fill="url(#accentLine)"/>
</svg>
